<svg xmlns="http://www.w3.org/2000/svg" width="14" height="24" viewBox="0 0 14 24">
    <g fill="none" fill-rule="evenodd">
        <g fill="#ffab2e" fill-rule="nonzero">
            <g>
                <path d="M13.612 16.616L8.144 12l5.468-4.616c.517-.436.517-1.24 0-1.675L7.151.255c-.701-.592-1.766-.087-1.766.838v8.274L1.838 5.775c-.42-.426-1.102-.426-1.523 0-.42.426-.42 1.117 0 1.543L4.94 12 .315 16.682c-.42.426-.42 1.117 0 1.543.421.426 1.103.426 1.523 0l3.547-3.592v8.274c0 .925 1.065 1.43 1.766.838l6.461-5.453c.517-.437.517-1.24 0-1.676zM7.538 3.422l3.703 3.124-3.703 3.125v-6.25zm0 17.156v-6.25l3.703 3.126-3.703 3.124z" transform="translate(-41 -272) translate(41 272)"/>
            </g>
        </g>
    </g>
</svg>
